<svg width="118" height="118" viewBox="0 0 118 118" fill="none" xmlns="http://www.w3.org/2000/svg">
<path d="M37.3636 9.2321C36.8788 10.0811 36.751 11.0878 37.0082 12.031C37.2654 12.9741 37.8867 13.7766 38.7354 14.2619C57.431 24.9482 59.0019 44.2634 59.0019 58.9986V98.0345L39.4876 78.5202C38.7962 77.8278 37.858 77.4384 36.8795 77.4377C36.3949 77.4374 35.9151 77.5325 35.4673 77.7176C35.0196 77.9027 34.6126 78.1742 34.2698 78.5165C33.9269 78.8589 33.6549 79.2654 33.4692 79.7129C33.2834 80.1605 33.1876 80.6402 33.1873 81.1247C33.187 81.6092 33.2821 82.089 33.4672 82.5368C33.6523 82.9846 33.9237 83.3915 34.2661 83.7344L60.0786 109.547C60.4211 109.89 60.8281 110.163 61.2761 110.349C61.7241 110.535 62.2043 110.63 62.6894 110.63C63.1744 110.63 63.6547 110.535 64.1027 110.349C64.5506 110.163 64.9576 109.89 65.3001 109.547L91.1126 83.7344C91.804 83.0419 92.1921 82.1032 92.1914 81.1247C92.1907 80.1462 91.8013 79.208 91.1089 78.5165C90.4165 77.8251 89.4778 77.437 88.4992 77.4377C87.5207 77.4384 86.5825 77.8278 85.8911 78.5202L66.3769 98.0345V58.9986C66.3769 44.2338 64.9977 20.774 42.3934 7.86035C41.5444 7.37555 40.5377 7.24771 39.5945 7.50494C38.6513 7.76217 37.8489 8.38342 37.3636 9.2321V9.2321Z" fill="#19191D"/>
</svg>
