<svg width="73" height="73" viewBox="0 0 73 73" fill="none" xmlns="http://www.w3.org/2000/svg">
<g style="mix-blend-mode:multiply">
<path d="M29.0682 7.7462C33.1219 3.52099 39.8781 3.52099 43.9318 7.7462V7.7462C45.9254 9.82414 48.6979 10.9725 51.5769 10.9129V10.9129C57.431 10.7916 62.2083 15.569 62.0871 21.4231V21.4231C62.0275 24.3021 63.1759 27.0746 65.2538 29.0682V29.0682C69.479 33.1219 69.479 39.8781 65.2538 43.9318V43.9318C63.1759 45.9254 62.0275 48.6979 62.0871 51.5769V51.5769C62.2083 57.431 57.431 62.2083 51.5769 62.0871V62.0871C48.6979 62.0275 45.9254 63.1759 43.9318 65.2538V65.2538C39.8781 69.479 33.1219 69.479 29.0682 65.2538V65.2538C27.0746 63.1759 24.3021 62.0275 21.4231 62.0871V62.0871C15.569 62.2083 10.7916 57.431 10.9129 51.5769V51.5769C10.9725 48.6979 9.82414 45.9254 7.7462 43.9318V43.9318C3.52099 39.8781 3.52099 33.1219 7.7462 29.0682V29.0682C9.82414 27.0746 10.9725 24.3021 10.9129 21.4231V21.4231C10.7916 15.569 15.569 10.7916 21.4231 10.9129V10.9129C24.3021 10.9725 27.0746 9.82414 29.0682 7.7462V7.7462Z" fill="#19191D"/>
</g>
<path d="M47.54 27.4L39.252 47H32.756L24.468 27.4H31.58L36.256 38.852L41.044 27.4H47.54Z" fill="white"/>
</svg>
