<svg width="194" height="24" viewBox="0 0 194 24" fill="none" xmlns="http://www.w3.org/2000/svg">
<path d="M3.33887 2.07373L8.75977 15.6577L14.2568 2.07373H17.4941L8.69629 23.1479L0.101562 2.07373H3.33887ZM30.7607 4.854H22.9023V9.56396H30.5322V12.3442H22.9023V18.895H30.7607V21.6753H19.9443V2.07373H30.7607V4.854ZM41.2852 13.3218L47.3535 21.6753H43.7354L38.1367 13.6519H37.6035V21.6753H34.6455V2.07373H38.1113C40.7012 2.07373 42.5716 2.56038 43.7227 3.53369C44.9922 4.61702 45.627 6.04736 45.627 7.82471C45.627 9.21273 45.2292 10.4061 44.4336 11.4048C43.638 12.4035 42.5885 13.0425 41.2852 13.3218ZM37.6035 11.0747H38.543C41.3444 11.0747 42.7451 10.0041 42.7451 7.86279C42.7451 5.85693 41.3825 4.854 38.6572 4.854H37.6035V11.0747ZM48.877 11.7856C48.877 9.02653 49.8883 6.65674 51.9111 4.67627C53.9255 2.6958 56.346 1.70557 59.1729 1.70557C61.9658 1.70557 64.361 2.70426 66.3584 4.70166C68.3643 6.69906 69.3672 9.09847 69.3672 11.8999C69.3672 14.7183 68.36 17.1092 66.3457 19.0728C64.3229 21.0448 61.8812 22.0308 59.0205 22.0308C56.4899 22.0308 54.2174 21.1548 52.2031 19.4028C49.9857 17.4647 48.877 14.9256 48.877 11.7856ZM51.8604 11.8237C51.8604 13.9904 52.5882 15.772 54.0439 17.1685C55.4912 18.5649 57.1628 19.2632 59.0586 19.2632C61.1152 19.2632 62.8503 18.5522 64.2637 17.1304C65.6771 15.6916 66.3838 13.9396 66.3838 11.8745C66.3838 9.78402 65.6855 8.03206 64.2891 6.61865C62.901 5.19678 61.1829 4.48584 59.1348 4.48584C57.0951 4.48584 55.3727 5.19678 53.9678 6.61865C52.5628 8.0236 51.8604 9.75863 51.8604 11.8237ZM73.0869 21.6753V0.740723L87.3818 15.6958V2.07373H90.3398V22.8687L76.0449 7.95166V21.6753H73.0869ZM98.0078 2.07373V21.6753H95.0498V2.07373H98.0078ZM105.676 9.89404L113.306 2.07373H117.254L108.393 10.9478L117.305 21.6753H113.344L106.285 12.9536L105.676 13.563V21.6753H102.718V2.07373H105.676V9.89404ZM131.473 16.9146H123.081L120.897 21.6753H117.711L127.41 0.842285L136.767 21.6753H133.529L131.473 16.9146ZM130.267 14.1343L127.359 7.46924L124.312 14.1343H130.267ZM150.211 9.89404L157.841 2.07373H161.789L152.928 10.9478L161.84 21.6753H157.879L150.82 12.9536L150.211 13.563V21.6753H147.253V2.07373H150.211V9.89404ZM167.451 2.07373V21.6753H164.493V2.07373H167.451ZM171.476 21.6753L175.602 0.601074L182.33 15.8354L189.3 0.601074L193.007 21.6753H189.973L188.081 9.84326L182.279 22.5767L176.643 9.83057L174.535 21.6753H171.476Z" fill="#123435"/>
</svg>
