<svg width="171" height="17" viewBox="0 0 171 17" fill="none" xmlns="http://www.w3.org/2000/svg">
<path d="M17.148 0.599999L10.438 16H7.622L0.89 0.599999H3.992L9.118 12.48L14.288 0.599999H17.148ZM30.3231 13.602V16H18.7731V0.599999H30.0151V2.998H21.6331V7.002H29.0691V9.356H21.6331V13.602H30.3231ZM43.5874 16L40.4414 11.49C40.3094 11.5047 40.1114 11.512 39.8474 11.512H36.3714V16H33.5114V0.599999H39.8474C41.182 0.599999 42.3407 0.819999 43.3234 1.26C44.3207 1.7 45.0834 2.33067 45.6114 3.152C46.1394 3.97333 46.4034 4.94867 46.4034 6.078C46.4034 7.23667 46.1174 8.234 45.5454 9.07C44.988 9.906 44.1814 10.5293 43.1254 10.94L46.6674 16H43.5874ZM43.5214 6.078C43.5214 5.09533 43.1987 4.34 42.5534 3.812C41.908 3.284 40.962 3.02 39.7154 3.02H36.3714V9.158H39.7154C40.962 9.158 41.908 8.894 42.5534 8.366C43.1987 7.82333 43.5214 7.06067 43.5214 6.078ZM56.7972 16.22C55.2278 16.22 53.8125 15.8827 52.5512 15.208C51.2898 14.5187 50.2998 13.5727 49.5812 12.37C48.8625 11.1527 48.5032 9.796 48.5032 8.3C48.5032 6.804 48.8625 5.45467 49.5812 4.252C50.2998 3.03467 51.2898 2.08867 52.5512 1.414C53.8125 0.724666 55.2278 0.379999 56.7972 0.379999C58.3665 0.379999 59.7818 0.724666 61.0432 1.414C62.3045 2.08867 63.2945 3.02733 64.0132 4.23C64.7318 5.43267 65.0912 6.78933 65.0912 8.3C65.0912 9.81067 64.7318 11.1673 64.0132 12.37C63.2945 13.5727 62.3045 14.5187 61.0432 15.208C59.7818 15.8827 58.3665 16.22 56.7972 16.22ZM56.7972 13.712C57.8238 13.712 58.7478 13.4847 59.5692 13.03C60.3905 12.5607 61.0358 11.9153 61.5052 11.094C61.9745 10.258 62.2092 9.32667 62.2092 8.3C62.2092 7.27333 61.9745 6.34933 61.5052 5.528C61.0358 4.692 60.3905 4.04667 59.5692 3.592C58.7478 3.12267 57.8238 2.888 56.7972 2.888C55.7705 2.888 54.8465 3.12267 54.0252 3.592C53.2038 4.04667 52.5585 4.692 52.0892 5.528C51.6198 6.34933 51.3852 7.27333 51.3852 8.3C51.3852 9.32667 51.6198 10.258 52.0892 11.094C52.5585 11.9153 53.2038 12.5607 54.0252 13.03C54.8465 13.4847 55.7705 13.712 56.7972 13.712ZM81.8067 0.599999V16H79.4527L70.9607 5.572V16H68.1227V0.599999H70.4767L78.9687 11.028V0.599999H81.8067ZM85.9332 0.599999H88.7932V16H85.9332V0.599999ZM98.2606 9.554L95.8186 12.062V16H92.9586V0.599999H95.8186V8.498L103.431 0.599999H106.643L100.175 7.486L107.039 16H103.695L98.2606 9.554ZM118.308 12.436H110.608L109.09 16H106.142L113.072 0.599999H115.888L122.84 16H119.848L118.308 12.436ZM117.362 10.192L114.458 3.46L111.576 10.192H117.362ZM136.181 9.554L133.739 12.062V16H130.879V0.599999H133.739V8.498L141.351 0.599999H144.563L138.095 7.486L144.959 16H141.615L136.181 9.554ZM146.906 0.599999H149.766V16H146.906V0.599999ZM168.077 16L168.055 5.792L162.995 14.24H161.719L156.659 5.924V16H153.931V0.599999H156.285L162.401 10.808L168.407 0.599999H170.761L170.783 16H168.077Z" fill="#19191D"/>
</svg>
