<svg width="135" height="135" viewBox="0 0 135 135" fill="none" xmlns="http://www.w3.org/2000/svg">
<g style="mix-blend-mode:multiply">
<path d="M52.025 7.23512C60.5212 -1.62043 74.6813 -1.62043 83.1774 7.23512V7.23512C87.3558 11.5902 93.1666 13.9971 99.2006 13.8721V13.8721C111.47 13.618 121.483 23.6307 121.229 35.9002V35.9002C121.104 41.9343 123.511 47.7451 127.866 51.9235V51.9235C136.721 60.4196 136.721 74.5797 127.866 83.0759V83.0759C123.511 87.2542 121.104 93.065 121.229 99.0991V99.0991C121.483 111.369 111.47 121.381 99.2006 121.127V121.127C93.1666 121.002 87.3558 123.409 83.1774 127.764V127.764C74.6813 136.62 60.5212 136.62 52.025 127.764V127.764C47.8467 123.409 42.0359 121.002 36.0018 121.127V121.127C23.7323 121.381 13.7196 111.369 13.9737 99.0991V99.0991C14.0987 93.065 11.6918 87.2542 7.33668 83.0759V83.0759C-1.51887 74.5797 -1.51887 60.4196 7.33668 51.9235V51.9235C11.6918 47.7451 14.0987 41.9343 13.9737 35.9002V35.9002C13.7196 23.6307 23.7323 13.618 36.0018 13.8721V13.8721C42.0359 13.9971 47.8467 11.5902 52.025 7.23512V7.23512Z" fill="#19191D"/>
</g>
</svg>
